<svg aria-hidden="true" style="position:absolute;width:0;height:0;overflow:hidden" xmlns="http://www.w3.org/2000/svg">
  <defs>
    <symbol id="icon-burger-menu" viewBox="0 0 44 32">
      <path d="M.668 30.054v-2.667h42.667v2.667H.668zm0-12.72v-2.667h42.667v2.667H.668zm0-12.72V1.947h42.667v2.667H.668z"/>
    </symbol>
    <symbol id="icon-x-5" viewBox="0 0 32 32">
      <path d="M0 0h32v32H0V0z"/>
      <path stroke-linejoin="round" stroke-linecap="round" stroke-width="2" d="M24 8 8 24M8 8l16 16"/>
    </symbol>
    <symbol id="icon-x" viewBox="0 0 32 32">
      <path d="M0 0h32v32H0V0z"/>
      <path stroke-linejoin="round" stroke-linecap="round" stroke-width="2" d="M24 8 8 24M8 8l16 16"/>
    </symbol>
    <symbol id="icon-close-btn-menu" viewBox="0 0 32 32">
      <path d="M0 0h32v32H0V0z"/>
      <path stroke-linejoin="round" stroke-linecap="round" stroke-width="2" d="M24 8 8 24M8 8l16 16"/>
    </symbol>
    <symbol id="icon-x-1" viewBox="0 0 32 32">
      <path d="M0 0h32v32H0V0z"/>
      <path stroke-linejoin="round" stroke-linecap="round" stroke-width="2" d="M24 8 8 24M8 8l16 16"/>
    </symbol>
    <symbol id="icon-material-symbols-light_menu-4" viewBox="0 0 32 32">
      <path d="M5.334 23.027v-1.333h21.333v1.333H5.334zm0-6.36v-1.333h21.333v1.333H5.334zm0-6.36V8.974h21.333v1.333H5.334z"/>
    </symbol>
    <symbol id="icon-headericon" viewBox="0 0 32 32">
      <path d="M5.334 23.027v-1.333h21.333v1.333H5.334zm0-6.36v-1.333h21.333v1.333H5.334zm0-6.36V8.974h21.333v1.333H5.334z"/>
    </symbol>
  </defs>
</svg>
